<svg xmlns="http://www.w3.org/2000/svg" viewBox="0 0 800 500" width="800" height="500">
  <!-- Donker achtergrond met gradiënt -->
  <rect width="800" height="500" fill="#121218" />
  
  <!-- Rechthoek met gradiënt als achtergrond voor de bank -->
  <rect x="100" y="150" width="600" height="250" rx="10" fill="url(#grad1)" />
  
  <!-- Bank gebouw -->
  <rect x="200" y="200" width="400" height="180" rx="5" fill="#252530" stroke="#4B6BFD" stroke-width="2" />
  <rect x="230" y="230" width="80" height="150" rx="3" fill="#1A1A25" />
  <rect x="360" y="230" width="80" height="150" rx="3" fill="#1A1A25" />
  <rect x="490" y="230" width="80" height="150" rx="3" fill="#1A1A25" />
  
  <!-- Kolommen van de bank -->
  <rect x="180" y="180" width="440" height="20" rx="2" fill="#2C2C3A" />
  <rect x="180" y="380" width="440" height="20" rx="2" fill="#2C2C3A" />
  
  <!-- Digitale elementen die cybersecurity symboliseren -->
  <circle cx="400" cy="150" r="40" fill="none" stroke="#6B5BFF" stroke-width="2" />
  <circle cx="400" cy="150" r="30" fill="none" stroke="#FF5BDB" stroke-width="2" />
  <circle cx="400" cy="150" r="20" fill="none" stroke="#5BFFDB" stroke-width="2" />
  
  <!-- Digitale lijnen die databeveiliging symboliseren -->
  <line x1="100" y1="120" x2="280" y2="120" stroke="#4B6BFD" stroke-width="2" />
  <line x1="520" y1="120" x2="700" y2="120" stroke="#4B6BFD" stroke-width="2" />
  <line x1="280" y1="120" x2="350" y2="150" stroke="#4B6BFD" stroke-width="2" />
  <line x1="520" y1="120" x2="450" y2="150" stroke="#4B6BFD" stroke-width="2" />
  
  <!-- Kleine cirkels die knooppunten voorstellen -->
  <circle cx="280" cy="120" r="5" fill="#5BFFDB" />
  <circle cx="520" cy="120" r="5" fill="#5BFFDB" />
  <circle cx="350" cy="150" r="3" fill="#FF5BDB" />
  <circle cx="450" cy="150" r="3" fill="#FF5BDB" />
  <circle cx="230" cy="230" r="3" fill="#FF5BDB" />
  <circle cx="360" cy="230" r="3" fill="#FF5BDB" />
  <circle cx="490" cy="230" r="3" fill="#FF5BDB" />
  
  <!-- Kleine vierkantjes die beveiligingspunten symboliseren -->
  <rect x="227" y="227" width="6" height="6" fill="#5BFFDB" />
  <rect x="357" y="227" width="6" height="6" fill="#5BFFDB" />
  <rect x="487" y="227" width="6" height="6" fill="#5BFFDB" />
  
  <!-- Slotpictogram om beveiliging aan te geven -->
  <rect x="385" y="130" width="30" height="20" rx="2" fill="none" stroke="#FF5BDB" stroke-width="2" />
  <circle cx="400" cy="140" r="5" fill="#FF5BDB" />
  <line x1="400" y1="140" x2="400" y2="150" stroke="#FF5BDB" stroke-width="2" />
  
  <!-- Definities voor gradiënten -->
  <defs>
    <linearGradient id="grad1" x1="0%" y1="0%" x2="100%" y2="100%">
      <stop offset="0%" style="stop-color:#1A1A25;stop-opacity:1" />
      <stop offset="100%" style="stop-color:#252530;stop-opacity:1" />
    </linearGradient>
  </defs>
</svg>