<svg xmlns="http://www.w3.org/2000/svg" viewBox="0 0 800 500" width="800" height="500">
  <!-- Donker achtergrond met gradiënt -->
  <rect width="800" height="500" fill="#121218" />
  
  <!-- Rechthoek met gradiënt als achtergrond -->
  <rect x="100" y="150" width="600" height="250" rx="10" fill="url(#grad1)" />
  
  <!-- Basisstructuur van het gebouw (overheidsgebouw stijl) -->
  <rect x="250" y="200" width="300" height="180" rx="3" fill="#252530" stroke="#4B6BFD" stroke-width="2" />
  
  <!-- Kolommen van het gebouw -->
  <rect x="270" y="200" width="20" height="180" fill="#1A1A25" />
  <rect x="330" y="200" width="20" height="180" fill="#1A1A25" />
  <rect x="390" y="200" width="20" height="180" fill="#1A1A25" />
  <rect x="450" y="200" width="20" height="180" fill="#1A1A25" />
  <rect x="510" y="200" width="20" height="180" fill="#1A1A25" />
  
  <!-- Dak van het gebouw -->
  <polygon points="250,200 400,150 550,200" fill="#1A1A25" stroke="#4B6BFD" stroke-width="2" />
  
  <!-- Trappen voor het gebouw -->
  <rect x="300" y="380" width="200" height="10" rx="2" fill="#1A1A25" />
  <rect x="310" y="390" width="180" height="10" rx="2" fill="#1A1A25" />
  <rect x="320" y="400" width="160" height="10" rx="2" fill="#1A1A25" />
  
  <!-- Netwerk verbindingen (cyberbeveiliging) -->
  <line x1="150" y1="130" x2="650" y2="130" stroke="#4B6BFD" stroke-width="2" />
  <line x1="150" y1="130" x2="250" y2="200" stroke="#4B6BFD" stroke-width="2" />
  <line x1="650" y1="130" x2="550" y2="200" stroke="#4B6BFD" stroke-width="2" />
  
  <!-- Datalijnen die het gebouw binnengaan -->
  <line x1="280" y1="200" x2="280" y2="170" stroke="#5BFFDB" stroke-width="1.5" />
  <line x1="340" y1="200" x2="340" y2="170" stroke="#5BFFDB" stroke-width="1.5" />
  <line x1="400" y1="200" x2="400" y2="170" stroke="#5BFFDB" stroke-width="1.5" />
  <line x1="460" y1="200" x2="460" y2="170" stroke="#5BFFDB" stroke-width="1.5" />
  <line x1="520" y1="200" x2="520" y2="170" stroke="#5BFFDB" stroke-width="1.5" />
  
  <!-- Netwerkpunten -->
  <circle cx="150" cy="130" r="5" fill="#5BFFDB" />
  <circle cx="650" cy="130" r="5" fill="#5BFFDB" />
  <circle cx="280" cy="170" r="3" fill="#FF5BDB" />
  <circle cx="340" cy="170" r="3" fill="#FF5BDB" />
  <circle cx="400" cy="170" r="3" fill="#FF5BDB" />
  <circle cx="460" cy="170" r="3" fill="#FF5BDB" />
  <circle cx="520" cy="170" r="3" fill="#FF5BDB" />
  
  <!-- Digitale beschermingsschild -->
  <path d="M400,100 L350,150 L350,220 L400,270 L450,220 L450,150 Z" fill="none" stroke="#6B5BFF" stroke-width="2" stroke-dasharray="10,5" />
  
  <!-- Kleine datapunten rond het gebouw -->
  <circle cx="300" cy="230" r="2" fill="#FF5BDB" />
  <circle cx="500" cy="230" r="2" fill="#FF5BDB" />
  <circle cx="300" cy="330" r="2" fill="#FF5BDB" />
  <circle cx="500" cy="330" r="2" fill="#FF5BDB" />
  <circle cx="400" cy="180" r="2" fill="#FF5BDB" />
  
  <!-- Kleine datalijnen tussen de punten -->
  <line x1="300" y1="230" x2="300" y2="330" stroke="#FF5BDB" stroke-width="1" stroke-dasharray="2,2" />
  <line x1="500" y1="230" x2="500" y2="330" stroke="#FF5BDB" stroke-width="1" stroke-dasharray="2,2" />
  <line x1="300" y1="230" x2="500" y2="230" stroke="#FF5BDB" stroke-width="1" stroke-dasharray="2,2" />
  <line x1="300" y1="330" x2="500" y2="330" stroke="#FF5BDB" stroke-width="1" stroke-dasharray="2,2" />
  
  <!-- Camera/beveiligingssymbool op het gebouw -->
  <rect x="380" y="260" width="40" height="20" rx="5" fill="#1A1A25" stroke="#5BFFDB" stroke-width="1.5" />
  <circle cx="400" cy="270" r="5" fill="#5BFFDB" />
  <polyline points="400,270 420,250 420,290 400,270" fill="none" stroke="#5BFFDB" stroke-width="1" />
  
  <!-- Definities voor gradiënten -->
  <defs>
    <linearGradient id="grad1" x1="0%" y1="0%" x2="100%" y2="100%">
      <stop offset="0%" style="stop-color:#1A1A25;stop-opacity:1" />
      <stop offset="100%" style="stop-color:#252530;stop-opacity:1" />
    </linearGradient>
  </defs>
</svg>