<svg xmlns="http://www.w3.org/2000/svg" viewBox="0 0 800 500" width="800" height="500">
  <!-- Donker achtergrond met gradiënt -->
  <rect width="800" height="500" fill="#121218" />
  
  <!-- Rechthoek met gradiënt als achtergrond -->
  <rect x="100" y="150" width="600" height="250" rx="10" fill="url(#grad1)" />
  
  <!-- Ziekenhuis gebouw -->
  <rect x="250" y="180" width="300" height="200" rx="5" fill="#252530" stroke="#4B6BFD" stroke-width="2" />
  <rect x="350" y="180" width="100" height="40" rx="5" fill="#1A1A25" stroke="#4B6BFD" stroke-width="2" />
  <rect x="380" y="220" width="40" height="160" fill="#1A1A25" />
  
  <!-- Medisch kruis symbool -->
  <rect x="370" y="240" width="60" height="15" rx="2" fill="#FF5BDB" />
  <rect x="392.5" y="230" width="15" height="35" rx="2" fill="#FF5BDB" />
  
  <!-- Ramen -->
  <rect x="280" y="230" width="40" height="40" rx="2" fill="#1A1A25" />
  <rect x="280" y="290" width="40" height="40" rx="2" fill="#1A1A25" />
  <rect x="480" y="230" width="40" height="40" rx="2" fill="#1A1A25" />
  <rect x="480" y="290" width="40" height="40" rx="2" fill="#1A1A25" />
  
  <!-- Medische data netwerk met digitale lijnen -->
  <line x1="150" y1="130" x2="650" y2="130" stroke="#4B6BFD" stroke-width="2" />
  <line x1="150" y1="130" x2="150" y2="380" stroke="#4B6BFD" stroke-width="2" />
  <line x1="650" y1="130" x2="650" y2="380" stroke="#4B6BFD" stroke-width="2" />
  <line x1="150" y1="380" x2="250" y2="380" stroke="#4B6BFD" stroke-width="2" />
  <line x1="550" y1="380" x2="650" y2="380" stroke="#4B6BFD" stroke-width="2" />
  
  <!-- Verbindingen naar het gebouw die datastromen representeren -->
  <line x1="150" y1="230" x2="250" y2="230" stroke="#5BFFDB" stroke-width="1.5" stroke-dasharray="5,5" />
  <line x1="150" y1="330" x2="250" y2="330" stroke="#5BFFDB" stroke-width="1.5" stroke-dasharray="5,5" />
  <line x1="550" y1="230" x2="650" y2="230" stroke="#5BFFDB" stroke-width="1.5" stroke-dasharray="5,5" />
  <line x1="550" y1="330" x2="650" y2="330" stroke="#5BFFDB" stroke-width="1.5" stroke-dasharray="5,5" />
  
  <!-- Netwerkpunten -->
  <circle cx="150" cy="130" r="5" fill="#5BFFDB" />
  <circle cx="650" cy="130" r="5" fill="#5BFFDB" />
  <circle cx="150" cy="230" r="4" fill="#FF5BDB" />
  <circle cx="150" cy="330" r="4" fill="#FF5BDB" />
  <circle cx="150" cy="380" r="5" fill="#5BFFDB" />
  <circle cx="650" cy="230" r="4" fill="#FF5BDB" />
  <circle cx="650" cy="330" r="4" fill="#FF5BDB" />
  <circle cx="650" cy="380" r="5" fill="#5BFFDB" />
  
  <!-- Beveiligingsschild rondom de data -->
  <path d="M400,100 L360,120 L360,160 L400,180 L440,160 L440,120 Z" fill="none" stroke="#6B5BFF" stroke-width="2" />
  <path d="M400,110 L370,125 L370,155 L400,170 L430,155 L430,125 Z" fill="none" stroke="#5BFFDB" stroke-width="1.5" />
  
  <!-- ECG-lijn (hartslag) om medische data te symboliseren -->
  <polyline points="370,140 380,140 385,120 390,160 395,140 405,140 410,120 415,160 420,140 430,140" 
            fill="none" stroke="#FF5BDB" stroke-width="1.5" />
  
  <!-- Digitale padslot icon voor beveiliging -->
  <circle cx="400" cy="320" r="25" fill="none" stroke="#6B5BFF" stroke-width="2" />
  <rect x="385" y="310" width="30" height="20" rx="2" fill="none" stroke="#FF5BDB" stroke-width="2" />
  <circle cx="400" cy="320" r="5" fill="#FF5BDB" />
  <line x1="400" y1="320" x2="400" y2="330" stroke="#FF5BDB" stroke-width="2" />
  
  <!-- Definities voor gradiënten -->
  <defs>
    <linearGradient id="grad1" x1="0%" y1="0%" x2="100%" y2="100%">
      <stop offset="0%" style="stop-color:#1A1A25;stop-opacity:1" />
      <stop offset="100%" style="stop-color:#252530;stop-opacity:1" />
    </linearGradient>
  </defs>
</svg>