<svg xmlns="http://www.w3.org/2000/svg" width="600" height="300" viewBox="0 0 600 300">
  <rect width="100%" height="100%" fill="#0d1117" />
  <polygon points="250,80 350,80 400,160 300,220 200,160" fill="#1a3172" />
  <circle cx="300" cy="140" r="40" fill="#375fd8" />
  <path d="M270,140 Q300,100 330,140 Q300,180 270,140" fill="#5e81f4" />
  <rect x="180" y="220" width="240" height="10" fill="#375fd8" rx="5" ry="5" />
  <rect x="210" y="240" width="180" height="10" fill="#375fd8" rx="5" ry="5" />
  <rect x="240" y="260" width="120" height="10" fill="#375fd8" rx="5" ry="5" />
  <circle cx="250" cy="100" r="5" fill="#8eb2ff" />
  <circle cx="350" cy="100" r="5" fill="#8eb2ff" />
  <circle cx="230" cy="150" r="4" fill="#8eb2ff" />
  <circle cx="370" cy="150" r="4" fill="#8eb2ff" />
  <line x1="280" y1="130" x2="320" y2="130" stroke="#8eb2ff" stroke-width="2" />
  <line x1="280" y1="150" x2="320" y2="150" stroke="#8eb2ff" stroke-width="2" />
</svg>