<svg xmlns="http://www.w3.org/2000/svg" viewBox="0 0 800 500" width="800" height="500">
  <!-- Donker achtergrond met gradiënt -->
  <rect width="800" height="500" fill="#121218" />
  
  <!-- Rechthoek met gradiënt als achtergrond -->
  <rect x="100" y="150" width="600" height="250" rx="10" fill="url(#grad1)" />
  
  <!-- Fabriekshallen -->
  <rect x="250" y="200" width="300" height="120" rx="2" fill="#252530" stroke="#4B6BFD" stroke-width="2" />
  
  <!-- Fabrieksschoorstenen -->
  <rect x="280" y="150" width="30" height="50" rx="1" fill="#1A1A25" stroke="#4B6BFD" stroke-width="1" />
  <rect x="430" y="150" width="30" height="50" rx="1" fill="#1A1A25" stroke="#4B6BFD" stroke-width="1" />
  
  <!-- Fabrieksramen -->
  <rect x="270" y="220" width="25" height="25" rx="2" fill="#1A1A25" />
  <rect x="310" y="220" width="25" height="25" rx="2" fill="#1A1A25" />
  <rect x="350" y="220" width="25" height="25" rx="2" fill="#1A1A25" />
  <rect x="390" y="220" width="25" height="25" rx="2" fill="#1A1A25" />
  <rect x="430" y="220" width="25" height="25" rx="2" fill="#1A1A25" />
  <rect x="470" y="220" width="25" height="25" rx="2" fill="#1A1A25" />
  
  <!-- Magazijn rechts -->
  <rect x="570" y="240" width="80" height="110" rx="2" fill="#1A1A25" stroke="#4B6BFD" stroke-width="1.5" />
  <rect x="595" y="320" width="30" height="30" rx="1" fill="#252530" />
  
  <!-- Magazijn links -->
  <rect x="150" y="240" width="80" height="110" rx="2" fill="#1A1A25" stroke="#4B6BFD" stroke-width="1.5" />
  <rect x="175" y="320" width="30" height="30" rx="1" fill="#252530" />
  
  <!-- OT Netwerk (links) - industriële controlesystemen -->
  <circle cx="190" cy="180" r="15" fill="none" stroke="#FF5BDB" stroke-width="2" />
  <line x1="190" y1="195" x2="190" y2="240" stroke="#FF5BDB" stroke-width="2" />
  <line x1="175" y1="180" x2="150" y2="180" stroke="#FF5BDB" stroke-width="2" />
  <line x1="150" y1="180" x2="150" y2="240" stroke="#FF5BDB" stroke-width="2" />
  
  <!-- IT Netwerk (rechts) - informatietechnologie -->
  <circle cx="610" cy="180" r="15" fill="none" stroke="#5BFFDB" stroke-width="2" />
  <line x1="610" y1="195" x2="610" y2="240" stroke="#5BFFDB" stroke-width="2" />
  <line x1="625" y1="180" x2="650" y2="180" stroke="#5BFFDB" stroke-width="2" />
  <line x1="650" y1="180" x2="650" y2="240" stroke="#5BFFDB" stroke-width="2" />
  
  <!-- Verbindingslijnen tussen OT en IT -->
  <line x1="400" y1="170" x2="400" y2="200" stroke="#6B5BFF" stroke-width="2" stroke-dasharray="5,5" />
  <line x1="190" y1="170" x2="610" y2="170" stroke="#6B5BFF" stroke-width="2" stroke-dasharray="5,5" />
  
  <!-- Netwerklijn rondom de fabriek -->
  <polyline points="150,360 150,400 650,400 650,360" fill="none" stroke="#4B6BFD" stroke-width="2" />
  
  <!-- Netwerkpunten -->
  <circle cx="190" cy="360" r="5" fill="#FF5BDB" />
  <circle cx="400" cy="400" r="5" fill="#6B5BFF" />
  <circle cx="610" cy="360" r="5" fill="#5BFFDB" />
  
  <!-- Segmentatie visualisatie - beveiligingslaag -->
  <rect x="240" y="330" width="320" height="20" rx="10" fill="none" stroke="#FF5BDB" stroke-width="1.5" stroke-dasharray="3,3" />
  
  <!-- Data flow indicators -->
  <circle cx="190" cy="300" r="3" fill="#FF5BDB" />
  <circle cx="220" cy="300" r="3" fill="#FF5BDB" />
  <circle cx="250" cy="300" r="3" fill="#FF5BDB" />
  <line x1="190" y1="300" x2="250" y2="300" stroke="#FF5BDB" stroke-width="1" />
  
  <circle cx="610" cy="300" r="3" fill="#5BFFDB" />
  <circle cx="580" cy="300" r="3" fill="#5BFFDB" />
  <circle cx="550" cy="300" r="3" fill="#5BFFDB" />
  <line x1="610" y1="300" x2="550" y2="300" stroke="#5BFFDB" stroke-width="1" />
  
  <!-- Digitale beschermingsschild -->
  <path d="M400,120 L350,150 L350,180 L400,210 L450,180 L450,150 Z" fill="none" stroke="#6B5BFF" stroke-width="2" />
  
  <!-- Kleine camera/sensoren -->
  <circle cx="300" cy="250" r="3" fill="#5BFFDB" />
  <circle cx="400" cy="250" r="3" fill="#5BFFDB" />
  <circle cx="500" cy="250" r="3" fill="#5BFFDB" />
  
  <!-- Definities voor gradiënten -->
  <defs>
    <linearGradient id="grad1" x1="0%" y1="0%" x2="100%" y2="100%">
      <stop offset="0%" style="stop-color:#1A1A25;stop-opacity:1" />
      <stop offset="100%" style="stop-color:#252530;stop-opacity:1" />
    </linearGradient>
  </defs>
</svg>